<?xml version="1.0" encoding="UTF-8"?> <svg xmlns="http://www.w3.org/2000/svg" xmlns:xlink="http://www.w3.org/1999/xlink" version="1.1" id="Capa_1" x="0px" y="0px" viewBox="0 0 200 200" style="enable-background:new 0 0 200 200;" xml:space="preserve"> <style type="text/css"> .st0{fill:#5C6671;} </style> <g> <g> <path id="Wordmark_00000143588811850069728080000007868020875093650609_" class="st0" d="M77.4,166.4v20.2h-3.7V178h-9.6v8.6h-3.7 v-20.2h3.7v8.1h9.6v-8.1H77.4z M84.3,182.9v-16.5h-3.7v20.2H96v-3.6L84.3,182.9z M114,169.9v-3.6H98.6v20.2H114v-3.6h-11.5v-4.9 h8.2v-3.5h-8.2v-4.5H114z M132.4,166.4h-15.8v3.6h6.1v16.5h3.7v-16.5h6.1L132.4,166.4L132.4,166.4z M134.9,186.5h3.7v-20.2h-3.7 V186.5z M57.8,166.4H41.1v3.6h6.6v16.5h3.7v-16.5H58v-3.6H57.8z M156,178.7c-0.4,2.6-2.5,4.3-5,4.5c-3.5-0.1-6.2-3-6.1-6.6v-0.1 c-0.2-3.5,2.5-6.7,6.1-6.8l0,0c2.5,0.1,4.6,2,5,4.3l3.3-1.3c-0.8-4-4.2-6.8-8.3-6.9c-5.9,0-9.6,4.7-9.7,10.4v0.5 c0.1,5.7,4,10.3,9.7,10.3c4.1,0,7.6-3,8.3-7L156,178.7z M33.4,170.5l-3.3,8.2c1.6-1.2,3.5-2,5.5-2.5L33.4,170.5z M37,179.5 c-4.2,0.7-8,3.3-10.1,7H23l8.1-20.2h4.5l8.2,20.2h-4L37,179.5 M177.1,177.2c-0.1,0-10.9-4.7-10.9-4.7c-0.1-0.4-0.8-3.4,3.4-3.3 c2.1,0,3.9,1.6,4.2,3.7l3.5-1.4c-0.8-3.5-4-6-7.7-5.9c-4.2,0-7.4,2.3-7.4,5.7c0,1.4,0.4,2.7,1.2,3.7l10.8,4.8 c0,0.1,0.5,3.6-4.3,3.6c-2.8,0-4.7-1.8-5.4-4.9l-3.4,1.3c0.7,4.3,4.5,7.4,8.8,7.1c4.8,0,8.1-2.9,8.1-6.9 C178.1,179.1,177.7,178,177.1,177.2 M181.7,184h-0.9v2.6h-0.4V184h-0.9v-0.4h2.2L181.7,184z M185,186.6h-0.4v-2.2l-0.9,2.2h-0.4 l-0.9-2.2v2.2h-0.4v-2.8h0.5l1.1,2.5l1.1-2.5h0.5L185,186.6z"></path> </g> <path id="Logo_00000094576513506787398350000004703686324766710686_" class="st0" d="M21.1,82.3h-0.2L10,71.7 c2.6-6.1,6.1-11.8,9.8-17.2c6.3,5.9,18.5,12.6,42.7,12.6c0.9,0,1.7,0,2.6,0c41.4-0.9,84.1-26.6,94.1-34c2.8,2.2,5.4,4.4,8.1,6.8 c-20.7,14.4-43.6,26.6-67.6,36c-14.4,5.7-29.6,9.4-45.1,10.5C43.3,87.1,32,85.8,21.1,82.3L21.1,82.3z M21.5,52 c2.6,2.6,10.5,8.1,24.8,10.7c11.5,2.2,30.7,2.8,56.4-5.2c19.2-6.1,37.5-15,54.3-26.4c-3.1-2.2-6.3-4.1-9.4-5.9 C129.2,35.7,108.9,42.7,88,45.7C82.3,46.6,76.7,47,70.8,47c-5.4,0-10.7-0.4-16.1-1.7c-6.3-1.3-12-4.8-15.9-9.8 c-0.2-0.2-0.4-0.7-0.4-0.9C32,39.8,26.3,45.5,21.5,52L21.5,52z M86.1,26.3c14.6-0.4,29-3.5,42.7-8.7c0.2,0,0.7-0.2,0.9-0.4 c-9.6-2.8-19.4-4.4-29.4-4.4c-13.5,0-26.8,2.8-39.2,8.1c0,0.2,0.2,0.7,0.4,1.1C64.3,25.9,76,27,86.1,26.3L86.1,26.3z M87.4,42.7 c20-2.8,39.4-9.4,57.1-19.2c-3.7-2-7.6-3.5-11.3-5c-0.2,0.2-0.9,0.4-1.3,0.7c-5.4,2.6-20.7,8.9-46.2,10c-1.7,0-3.3,0-5,0 c-4.1,0-8.3-0.2-12.4-1.1c-3.7-0.4-7.2-2-9.8-4.8c-0.2-0.4-0.7-0.9-0.9-1.5c-6.3,2.8-12.2,6.5-17.4,10.7c0.7,1.1,1.3,2,2.2,2.6 C52.7,46.2,75.2,44.6,87.4,42.7L87.4,42.7z M62.7,124.4L81,106.1c-10,3.3-20.5,5-31.2,5.4L62.7,124.4z M185.4,62.1 c-1.3,1.3-3.1,2.6-4.6,3.9c-13.7,12-34,29.9-57.5,44.5l13.9,13.9L190,71.7C188.7,68.4,187.2,65.1,185.4,62.1L185.4,62.1z M183.9,59.5c-1.7-2.8-3.7-5.9-5.9-8.5c-21.4,17.4-44.7,32.5-69.5,44.5l12.9,12.9c23.1-14.2,46.2-34.4,58.6-45.3 C181.3,61.6,182.6,60.5,183.9,59.5L183.9,59.5z M169.5,41.6c-11.3,8.3-63.6,41.8-107.4,46.9c-4.4,0.4-8.7,0.7-13.3,0.7 c-8.1,0-15.9-0.9-23.8-2.6l22,22.2c13.1-0.4,26.2-2.8,38.4-7.2L100,86.9l6.1,6.1c24.8-12.2,48.4-27.2,70-44.5 C174.1,46.2,171.9,43.8,169.5,41.6L169.5,41.6z"></path> <g> <polygon class="st0" points="119.9,139.1 116.2,139.1 116.2,159.3 132,159.3 132,155.6 119.9,155.6 "></polygon> <polygon class="st0" points="67.3,153.7 63.5,139 59.6,139 55.8,153.4 52.1,139.1 48.2,139.1 53.4,159.3 57.8,159.3 61.4,145.3 65.1,159.3 69.5,159.3 74.7,139.1 70.9,139.1 "></polygon> <path class="st0" d="M85.9,138.8c-0.2,0-0.4,0-0.6,0c-5.6-0.1-10.2,4.3-10.3,10c-0.1,0.1-0.1,0.2-0.1,0.5 c-0.2,5.5,4.1,10.2,9.7,10.4c0.2,0,0.5,0,0.7,0c5.5,0.1,10.1-4.2,10.2-9.8c0-0.2,0-0.5,0-0.6C95.8,143.7,91.4,139,85.9,138.8z M85.8,155.9c-0.1,0-0.4,0-0.5,0c-3.5,0.1-6.3-2.7-6.4-6.1c0-0.1,0-0.4,0-0.5c-0.1-3.5,2.6-6.6,6.1-6.7c0.1,0,0.2,0,0.5,0 c3.5,0,6.3,2.8,6.3,6.2c-0.1,0.1-0.1,0.2-0.1,0.4C91.9,152.6,89.2,155.6,85.8,155.9z"></path> <path class="st0" d="M113.5,145.6c0.1-3-2-5.7-5-6.4H98.1v20h3.7V152l2.2,0.1c0.6,1.9,1.6,3.4,3,4.8c1.8,1.5,4,2.3,6.2,2.3v-3.5 c-2.2-0.4-4.1-1.8-4.9-3.7C111.5,151.4,113.5,148.6,113.5,145.6z M107.8,148.3v0.1h-6.1v-5.5h6.1c1.2,0.2,2,1.4,1.9,2.7 C109.8,146.9,109.1,147.9,107.8,148.3z"></path> <path class="st0" d="M152.4,149.2c0-4.7-3.2-8.9-7.7-10.1h-10v20l10,0.1C149.3,158.3,152.7,154,152.4,149.2z M143.9,155.4h-5.5 v-12.7h5.5c2.7,0.9,4.6,3.5,4.7,6.3C148.6,152,146.6,154.5,143.9,155.4z"></path> </g> </g> </svg> 