<?xml version="1.0" encoding="UTF-8"?> <svg xmlns="http://www.w3.org/2000/svg" xmlns:xlink="http://www.w3.org/1999/xlink" width="150" height="150" viewBox="0 0 150 150"><defs><clipPath id="clip-path"><rect id="Rectángulo_339" data-name="Rectángulo 339" width="150" height="150" transform="translate(0.003)" fill="#fff"></rect></clipPath></defs><g id="Enmascarar_grupo_81" data-name="Enmascarar grupo 81" transform="translate(-0.003)" clip-path="url(#clip-path)"><g id="STARTER" transform="translate(0.319 0.026)"><path id="Trazado_1453" data-name="Trazado 1453" d="M145.385,111.715H4.7V8.055a2.8,2.8,0,0,1,2.652-2.9H142.733a2.8,2.8,0,0,1,2.652,2.9Zm0,8.055a2.8,2.8,0,0,1-2.652,2.9H7.354a2.8,2.8,0,0,1-2.652-2.9v-2.9H145.385ZM87.751,144.935H62.386v-17.11H87.751ZM142.733,0H7.354C3.3,0,0,3.6,0,8.055V119.77c0,4.453,3.3,8.055,7.354,8.055H57.634v17.11H49.979a2.56,2.56,0,0,0,0,5.1h50.129a2.56,2.56,0,0,0,0-5.1H92.454v-17.11h50.279c4.052,0,7.354-3.6,7.354-8.055V8.055c0-4.453-3.3-8.055-7.354-8.055" fill="#5b656e"></path><path id="Trazado_1454" data-name="Trazado 1454" d="M74.571,16.36H24.391a2.351,2.351,0,0,0,0,4.7H74.521a2.352,2.352,0,0,0,.05-4.7" transform="translate(60.658 45.026)" fill="#5b656e"></path><path id="Trazado_1455" data-name="Trazado 1455" d="M31.909,19.693H24.4a2.351,2.351,0,1,0,0,4.7h7.5a2.351,2.351,0,1,0,0-4.7" transform="translate(60.695 54.2)" fill="#5b656e"></path><path id="Trazado_1456" data-name="Trazado 1456" d="M49.133,19.693H29.071a2.351,2.351,0,1,0,0,4.7H49.133a2.351,2.351,0,1,0,0-4.7" transform="translate(73.539 54.2)" fill="#5b656e"></path><path id="Trazado_1457" data-name="Trazado 1457" d="M56.638,22.373H29.071a2.351,2.351,0,1,0,0,4.7H56.638a2.351,2.351,0,1,0,0-4.7" transform="translate(73.539 61.576)" fill="#5b656e"></path><path id="Trazado_1458" data-name="Trazado 1458" d="M31.909,22.373H24.4a2.351,2.351,0,1,0,0,4.7h7.5a2.351,2.351,0,1,0,0-4.7" transform="translate(60.695 61.576)" fill="#5b656e"></path><path id="Trazado_1459" data-name="Trazado 1459" d="M31.993,60.757A23.764,23.764,0,1,1,55.757,36.993,23.915,23.915,0,0,1,31.993,60.757m0-52.531a28.767,28.767,0,1,0,0,57.534,28.767,28.767,0,1,0,0-57.534" transform="translate(8.88 22.641)" fill="#0e79c7"></path><path id="Trazado_1460" data-name="Trazado 1460" d="M14.9,35.753V13.24a22.917,22.917,0,0,1,15.509,7,22.917,22.917,0,0,1,7,15.509ZM34.158,16.742a29.587,29.587,0,0,0-21.763-8.5,2.271,2.271,0,0,0-1.751.75,2.271,2.271,0,0,0-.75,1.751V38.255a2.507,2.507,0,0,0,2.5,2.5H39.911a7.733,7.733,0,0,0,2-.5,2.271,2.271,0,0,0,.75-1.751,29.207,29.207,0,0,0-8.5-21.763" transform="translate(27.228 22.631)" fill="#0e79c7"></path><path id="Trazado_1461" data-name="Trazado 1461" d="M32.657,34.821,14.146,16.31a2.476,2.476,0,0,0-3.5,3.5L29.155,38.323a2.418,2.418,0,0,0,3.5,0,2.418,2.418,0,0,0,0-3.5" transform="translate(27.228 42.824)" fill="#0e79c7"></path><path id="Trazado_1462" data-name="Trazado 1462" d="M44.566,25.173H24.555a2.363,2.363,0,0,0-2.5,2.5,2.363,2.363,0,0,0,2.5,2.5H44.566a2.363,2.363,0,0,0,2.5-2.5,2.363,2.363,0,0,0-2.5-2.5" transform="translate(60.695 69.282)" fill="#5b656e"></path><path id="Trazado_1463" data-name="Trazado 1463" d="M35.223,25.924c-.25,0-.25-.25-.5-.25s-.25-.25-.5-.25c-.25-.25-.25-.25-.5-.25a3.492,3.492,0,0,0-2.251.75,2.271,2.271,0,0,0-.75,1.751c0,.5.25.75.25,1s.25.5.5.75a2.271,2.271,0,0,0,1.751.75h.25c.25-.25.25-.25.5-.25a.873.873,0,0,0,.5-.25.873.873,0,0,0,.5-.25,2.271,2.271,0,0,0,.75-1.751,3.615,3.615,0,0,0-.5-1.751" transform="translate(84.547 69.282)" fill="#5b656e"></path><path id="Trazado_1464" data-name="Trazado 1464" d="M37.591,11.933a2.349,2.349,0,0,0-2.351,2.351v5a2.351,2.351,0,0,0,4.7,0v-5a2.349,2.349,0,0,0-2.351-2.351" transform="translate(96.987 32.843)" fill="#0e79c7"></path><path id="Trazado_1465" data-name="Trazado 1465" d="M24.661,11.187a2.363,2.363,0,0,0-2.5,2.5v7.5a2.363,2.363,0,0,0,2.5,2.5,2.363,2.363,0,0,0,2.5-2.5v-7.5a2.363,2.363,0,0,0-2.5-2.5" transform="translate(60.989 30.788)" fill="#0e79c7"></path><path id="Trazado_1466" data-name="Trazado 1466" d="M27.328,8.52a2.363,2.363,0,0,0-2.5,2.5v17.51a2.363,2.363,0,0,0,2.5,2.5,2.363,2.363,0,0,0,2.5-2.5V11.021a2.363,2.363,0,0,0-2.5-2.5" transform="translate(68.328 23.449)" fill="#0e79c7"></path><path id="Trazado_1467" data-name="Trazado 1467" d="M29.995,9.853a2.363,2.363,0,0,0-2.5,2.5V24.862a2.5,2.5,0,1,0,5,0V12.355a2.363,2.363,0,0,0-2.5-2.5" transform="translate(75.667 27.118)" fill="#0e79c7"></path><path id="Trazado_1468" data-name="Trazado 1468" d="M32.661,5.187a2.363,2.363,0,0,0-2.5,2.5V37.706a2.5,2.5,0,0,0,5,0V7.688a2.363,2.363,0,0,0-2.5-2.5" transform="translate(83.006 14.275)" fill="#0e79c7"></path><path id="Trazado_1469" data-name="Trazado 1469" d="M35.328,7.853a2.363,2.363,0,0,0-2.5,2.5V30.366a2.5,2.5,0,0,0,5,0V10.355a2.363,2.363,0,0,0-2.5-2.5" transform="translate(90.345 21.614)" fill="#0e79c7"></path></g></g></svg> 