<?xml version="1.0" encoding="UTF-8"?> <svg xmlns="http://www.w3.org/2000/svg" xmlns:xlink="http://www.w3.org/1999/xlink" version="1.1" id="Capa_1" x="0px" y="0px" viewBox="0 0 800 800" style="enable-background:new 0 0 800 800;" xml:space="preserve"> <style type="text/css"> .st0{fill:#0075C9;} .st1{fill:none;} .st2{fill:#5B656E;} </style> <path class="st0" d="M220.5,35.3c-1.2,1.6-1.6,3.6-1.1,5.5l26.7,99.7c0.4,1.7,1.5,3,3,3.9c1.5,0.9,4.4,2.6,8,4.7 c7.7,4.6,23.7,14.2,35.2,20.5c-1.1-5.3-1.8-10.7-2.1-16.3l-32.4-18.7l-23.9-89.1h66.1V32.8h-74.4C223.5,32.8,221.7,33.7,220.5,35.3z "></path> <path class="st0" d="M557,144.4c1.5-0.8,2.5-2.2,3-3.9l26.7-99.7c0.5-1.9,0.1-3.9-1.1-5.5c-1.2-1.6-3.1-2.5-5-2.5h-77.4v12.8h69.1 l-23.9,89.1L516,153.4c-0.3,5.5-1.1,11-2.1,16.3c11.5-6.3,27.6-15.9,35.4-20.6C552.7,147,555.5,145.3,557,144.4z"></path> <g> <polygon class="st1" points="501.5,331.5 488.7,331.5 317.5,331.5 304.5,331.5 304.5,428.5 501.5,428.5 "></polygon> <polygon class="st1" points="566.1,441.3 507.9,441.3 298.2,441.3 238.4,441.3 238.4,558.1 238.4,558.1 238.4,784.2 244.4,784.2 252.3,784.2 566.1,784.2 566.1,592.7 566.1,592.7 "></polygon> <polygon class="st1" points="17.1,780 12.8,784.2 224.3,784.2 224.3,558.1 224.3,555 17.1,555 "></polygon> <polygon class="st1" points="330,296.4 326.8,318.8 479.2,318.8 476.1,296.4 "></polygon> <polygon class="st1" points="580.2,594.5 580.2,784.2 586.2,784.2 594.1,784.2 782.8,784.2 782.6,594.5 "></polygon> <rect x="308.6" y="15.8" class="st1" width="188.8" height="44.3"></rect> <path class="st2" d="M365.3,237.2c0-4.9-4-6.3-6.4-6.3s-6.4,1.3-6.4,6.3v46.5h12.8V237.2z"></path> <path class="st2" d="M453.5,237.2c0-4.9-4-6.3-6.4-6.3c-2.4,0-6.4,1.3-6.4,6.3v46.5h12.7V237.2z"></path> <path class="st0" d="M490.9,304.2c-2-13.1-3.5-20.6-9.6-20.6h-27.8h-12.7h-75.5h-12.8h-27.8c-3,0-5.6,2.1-6.2,5.1l-4.7,30.1h11.5 h1.5l3.1-22.4h146.1l3.1,22.4h1.5H492C491.6,314.5,491.2,306.5,490.9,304.2z"></path> <path class="st2" d="M403,253.8c11,0,21.7-1.7,31.7-4.8v-11.8c0-0.6,0-1.1,0.1-1.7c-10,3.6-20.7,5.5-31.8,5.5 c-11.2,0-21.9-2-31.8-5.5c0.1,0.5,0.1,1.1,0.1,1.7V249C381.3,252.1,392,253.8,403,253.8z"></path> <path class="st2" d="M346.5,237.6v-0.5c0-5.2,2.6-8.8,6.2-10.7c-26.5-16.7-44.1-46.3-44.1-79.8V85v-6.2v-6h188.8v6V85v61.6 c0,33.6-17.6,63.1-44.1,79.8c3.5,1.9,6.2,5.5,6.2,10.7v0.5c30.4-18.9,50.7-52.6,50.7-91v-60v-9.5V9.4c0-3.5-2.9-6.4-6.4-6.4H302.3 c-3.5,0-6.4,2.9-6.4,6.4v67.8v9.5v60C295.9,185,316.2,218.7,346.5,237.6z M308.6,15.8h188.8V60H308.6V15.8z"></path> <path class="st2" d="M796.7,588.1c0-3.5-3.2-6.4-7-6.4l-209.4,0V434.9c0-3.5-3.2-6.4-7-6.4h-58.9v-96.1c0-7.5-6.1-13.7-13.7-13.7 H492h-11.3h-1.5H326.8h-1.5h-11.5h-8.4c-7.5,0-13.7,6.1-13.7,13.7v96.1h-60.4c-3.9,0-7,2.9-7,6.4v107.3l-214.3,0 c-3.9,0-7,2.9-7,6.4v242c0,3.5,3.2,6.4,7,6.4h221.2c0,0,0.1,0,0.1,0s0.1,0,0.1,0h11.1h11.7h330.1H596H790c2,0,3.9-0.8,5.2-2.1 c1.2-1.2,1.8-2.7,1.8-4.3L796.7,588.1z M224.3,558.1v226.1H12.8l4.2-4.2V555h207.2V558.1z M304.5,331.5h12.9h171.2h12.8v97h-197 V331.5z M566.1,784.2H252.3h-7.9h-6V558.1c0,0,0,0,0,0V441.3h59.7h209.7h58.2v151.4c0,0,0,0,0,0V784.2z M594.1,784.2h-7.9h-6V594.5 h202.4l0.2,189.7H594.1z"></path> </g> <path class="st0" d="M467.7,357.9H338.3c-3.5,0-6.4,2.9-6.4,6.4v37.1c0,3.5,2.9,6.4,6.4,6.4h129.4c3.5,0,6.4-2.9,6.4-6.4v-37.1 C474.1,360.8,471.2,357.9,467.7,357.9z M461.4,395H344.7v-24.3h116.6V395z"></path> <path class="st0" d="M410.6,538.5c-1.9-0.8-4.7-0.9-6.9,1.3l-26.2,25.6c-2.5,2.5-2.6,6.5-0.1,9c1.3,1.4,2.7,2,4,2c0,0,0,0,0,0 c3.7,0,8.2-4.7,12.2-8.9c1.1-1.1,2.1-2.1,3.1-3.1l5.1-5v122.1h12.7V544.3C414.5,541.7,413,539.5,410.6,538.5z"></path> <path class="st0" d="M451.6,676.6h-87.1c-4.9,0-6.3,4-6.3,6.4s1.3,6.4,6.3,6.4h87c4.9,0,6.3-4,6.3-6.4 C457.9,680.6,456.6,676.6,451.6,676.6z"></path> <path class="st0" d="M403,90.9c-35.6,0-64.5,29-64.5,64.5c0,35.6,29,64.5,64.5,64.5c35.6,0,64.5-29,64.5-64.5 C467.6,119.9,438.6,90.9,403,90.9z M403,212.3c-31.3,0-56.8-25.5-56.8-56.8c0-31.3,25.5-56.8,56.8-56.8c31.3,0,56.8,25.5,56.8,56.8 C459.8,186.8,434.3,212.3,403,212.3z"></path> <path class="st0" d="M439.2,146.9c-0.9-2.6-6-3.7-13.7-5c-2.2-0.4-4.4-0.7-6.7-1.2l-2.4-0.5l-1.2-2.2c-1.2-2-2.2-4.1-3.2-6 c-3.6-6.9-6.2-11.5-8.9-11.5c-2.8,0-5.3,4.5-8.9,11.5c-1,1.9-2.1,3.9-3.2,6l-1.2,2.2l-2.4,0.5c-2.3,0.5-4.5,0.8-6.7,1.2 c-7.7,1.3-12.8,2.3-13.7,5c-0.9,2.6,2.7,6.5,8.1,12.1c1.5,1.6,3.1,3.2,4.7,4.9l1.7,1.8l-0.3,2.5c-0.3,2.3-0.6,4.6-0.9,6.7 c-1.2,7.7-1.7,12.9,0.5,14.5c2.2,1.6,7-0.5,14-4c2-1,4-2,6.1-3l2.3-1l2.3,1c0.8,0.4,1.9,0.9,3.2,1.5c11,5.3,13.9,6.1,14.7,6.2 c1.3,0,2.1-0.2,2.6-0.7c2.1-2.4,0.7-11.3,0-16.1c-0.3-1.7-0.5-3.5-0.7-5.2l-0.3-2.5l1.7-1.8c1.6-1.7,3.2-3.4,4.7-4.9 C436.6,153.4,440.1,149.6,439.2,146.9z M420.7,158.7c-2,2.1-3.5,3.8-3.8,4.6c-0.2,0.7,0,3.1,0.4,5.9l1.1,10l-15.4-5.4l-15.4,5.4 l1.1-10c0.3-2.9,0.6-5.2,0.4-5.9c-0.2-0.7-1.8-2.4-3.8-4.6l-7.4-8.1l10.7-2.2c2.9-0.6,5.1-1,5.8-1.5c0.6-0.4,1.7-2.5,3.2-5l5.4-9.6 l5.4,9.5c1.4,2.6,2.6,4.6,3.2,5c0.6,0.4,2.8,0.9,5.7,1.5l10.8,2.2L420.7,158.7z"></path> </svg> 