<?xml version="1.0" encoding="UTF-8"?>
<svg id="Capa_1" xmlns="http://www.w3.org/2000/svg" version="1.1" viewBox="0 0 1500 500">
  <!-- Generator: Adobe Illustrator 29.0.1, SVG Export Plug-In . SVG Version: 2.1.0 Build 192)  -->
  <defs>
    <style>
      .st0 {
        fill: #cedded;
      }

      .st1 {
        fill: #f1f5fa;
      }

      .st2 {
        fill: #a8c2df;
      }

      .st3 {
        fill: #fff;
      }

      .st4 {
        fill: #6f9bc8;
      }

      .st5 {
        fill: #0e75c9;
      }
    </style>
  </defs>
  <path class="st1" d="M0,0h1500v500H0V0Z"/>
  <path class="st0" d="M278,80.8c10.1,3.7,18.8,10,27.3,16.3,4.4,3.3,8.8,6.6,12.3,10.8,6.3,7.5,8.9,17,11,26.2,2.4,10.8,4.1,21.8,3.2,32.8s-4.4,22-11.8,30.7c-3.6,4.2-8.1,8-13.6,9.7-4.4,1.4-9.1,1.5-13.7,1.4-24.3-.2-50.2-4-68.1-19.1-14.2-11.9-21.5-29.8-22.1-47.5s5-35.2,13.5-51c5.3-9.9,12.4-14.1,24.1-14.5s25.9-.2,37.9,4.2h0Z"/>
  <path class="st4" d="M330.6,203c-3.6-.2-7-1.5-10.3-2.7-1.7-.7-3.5-1.3-4.9-2.3-2.7-1.8-4.4-4.6-5.9-7.4-1.8-3.3-3.3-6.6-4-10.2s-.6-7.5,1-10.9c.8-1.7,1.9-3.3,3.5-4.4,1.3-.8,2.8-1.3,4.3-1.7,7.8-2.2,16.5-3.3,23.7-.1,5.7,2.5,9.7,7.6,11.5,13.2s1.6,11.8.4,17.6c-.8,3.7-2.7,5.7-6.4,6.9s-8.3,2.4-12.6,2.2l-.3-.2Z"/>
  <path class="st0" d="M493.2,465c-15-9.9-31.9-17.2-49.5-18.2s-36.1,4.6-49.3,17.6c-9.7,9.5-15.8,22-19.7,35.6h129.9c.3-3.3.6-6.5.8-9.6.7-11.8-2.8-19.2-12.2-25.4Z"/>
  <path class="st0" d="M1024.2,480.7c-15-9.9-31.9-17.2-49.5-18.2s-36.1,4.6-49.3,17.6c-5.8,5.7-10.3,12.5-13.8,19.9h124.8c-.7-8.4-4.5-14.2-12.1-19.3Z"/>
  <path class="st0" d="M1084,17.1c1.2,5.7,4.5,10.6,8.4,14.5,8,8.1,18.7,12.7,29.5,14.6,10.8,1.9,21.9,1.2,32.9-.1,9.4-1.2,19.1-3,27.1-8.5,4.5-3,8.2-7.1,11.9-11.2,7.1-7.9,14.2-15.9,18.8-25.7h0c.1-.2.2-.5.3-.7h-128.5c-.1,1.1-.3,2.2-.4,3.3-.5,4.6-.9,9.3,0,13.8Z"/>
  <path class="st0" d="M1479.1,272.8c-6.7,22.4.3,47.7,9.8,70,1.8,4.3,3.8,8.6,6.8,12,1.3,1.5,2.7,2.7,4.3,3.8v-116.4c-9.7,7.8-17.3,18.2-20.9,30.6Z"/>
  <path class="st4" d="M1056.2,481.2c-7.2-3.2-15.9-2.1-23.7,0-1.5.4-3,.9-4.3,1.7-1.6,1.1-2.7,2.7-3.5,4.4-1.6,3.4-1.7,7.3-1,10.9.1.6.3,1.1.4,1.7h44.7c-.2-1.9-.6-3.8-1.1-5.6-1.8-5.6-5.8-10.7-11.5-13.2Z"/>
  <path class="st5" d="M24.9,53.5v.7l16,74.8c0,.6.5,1,1,1.3.2,0,.4.2.6.2.4,0,.7,0,1.1-.2l23.7-11,18.7,16.8c.3.4.7.7,1.2.8h.7c0,0,.3,0,.4-.1,0,0,.2-.2.3-.3h0c0-.1.2-.3.3-.5v-.6l9.8-29.5,33.4-12c.8-.3,1.3-1,1.3-1.8s-.5-1.5-1.2-1.8L27.4,52.2h-.9c-.2,0-.3,0-.5.2h-.1c-.2,0-.3.2-.5.4-.1.2-.2.3-.3.5h0c0,0-.2.2-.2.2ZM98.1,102.1l-58.9-41.6,87.3,31.4-28.4,10.2ZM85.5,109.5c0,0,0-.3,0-.4v-.3l-.2-.2-40.2-39.4,50.8,35.9-7.3,22-2.8-17.4-.2-.2ZM71,117.8l2.5-1.2,8.7-4,2.7,17.6-6.9-6.1-7-6.2h0ZM29.9,59.7l50.5,49.5-4.8,2.2-31.5,14.6-14.2-66.3Z"/>
  <path class="st2" d="M615.4,88c0,0,0-.3,0-.4v-.3c-.1-.1-40.2-39.4-40.4-39.6l50.8,35.9-7.3,22-2.8-17.4-.2-.2Z"/>
  <path class="st4" d="M612,91l2.7,17.6-6.9-6.1-6.9-6.3,2.4-1.1,8.7-4.1Z"/>
  <path class="st3" d="M656.4,70.4l-28.5,10.1-58.8-41.6,87.3,31.5ZM605.5,89.9l-31.5,14.6-14.2-66.3,50.4,49.5s-4.7,2.2-4.7,2.2Z"/>
  <path class="st5" d="M554.8,32v.7l16,74.8c0,.6.5,1,1,1.3.2,0,.4.2.6.2.4,0,.7,0,1.1-.2l23.7-11,18.7,16.8c.3.4.7.7,1.2.8h.7c0,0,.3,0,.4,0,0,0,.2-.2.3-.3h0c0,0,.2-.3.3-.5v-.6l9.8-29.5,33.4-12c.8-.3,1.3-1,1.3-1.8s-.5-1.5-1.2-1.8l-105.3-37.9h-.9c-.2,0-.3,0-.5.2h0c-.2,0-.3.2-.5.4,0,.2-.2.3-.3.5h0c0,0,.2,0,.2,0ZM627.9,80.5l-58.9-41.6,87.3,31.4-28.4,10.2ZM615.4,88c0,0,0-.3,0-.4v-.3l-.2-.2-40.2-39.4,50.8,35.9-7.3,22-2.8-17.4-.2-.2ZM600.9,96.2l2.5-1.2,8.7-4,2.7,17.6-6.9-6.1-7-6.2h0ZM559.8,38.2l50.5,49.5-4.8,2.2-31.5,14.6s-14.2-66.3-14.2-66.3Z"/>
  <polygon class="st3" points="1325.4 481.1 1297 491.3 1238.1 449.7 1325.4 481.1"/>
  <g>
    <polygon class="st1" points="1238.1 449.7 1297 491.3 1325.4 481.1 1238.1 449.7"/>
    <path class="st1" d="M1281.4,495.2c-5.2-5.1-16.4-16-25.2-24.7l25.2,24.7Z"/>
    <path class="st2" d="M1294.7,494.3l-50.8-35.9,12.3,12.1c8.8,8.7,20,19.6,25.2,24.7l2.7,2.6.2.2v.3c0,.1,0,.3,0,.4l.2.2.2,1.1h8l1.9-5.7Z"/>
    <polygon class="st3" points="1279.3 498.5 1228.8 449 1239.7 500 1276 500 1279.3 498.5"/>
    <path class="st5" d="M1331.1,483.1c.8-.3,1.3-1,1.3-1.8s-.5-1.5-1.2-1.8l-105.3-37.9h-.9c-.2,0-.3,0-.5.2h0c-.2,0-.3.2-.5.4,0,.2-.2.3-.3.5h0c0,0,.2,0,.2,0v.7l12.1,56.6h3.8l-10.9-51,50.5,49.5-3.3,1.5h8.7l-.2-1.1-.2-.2c0-.1,0-.3,0-.4v-.3s-1.1-1.1-2.9-2.8l-25.2-24.7c-6.9-6.7-12.3-12-12.3-12.1l50.8,35.9-1.9,5.7h3.3l1.6-4.9,33.4-12ZM1238.1,449.7l87.3,31.4-28.4,10.2-58.9-41.6Z"/>
    <path class="st5" d="M1281.4,495.2c1.8,1.7,2.8,2.8,2.9,2.8l-.2-.2-2.7-2.6Z"/>
    <path class="st5" d="M1256.2,470.5l-12.3-12.1c0,0,5.5,5.4,12.3,12.1Z"/>
  </g>
  <path class="st5" d="M86.8,389.7v.7l37.3,66.8c.3.5.8.8,1.3.9h.6c.4,0,.7-.2,1-.5l19.4-17.5,22.8,10.5c.4.3.9.5,1.4.4.2,0,.3,0,.5-.2h.1c.1,0,.2-.1.3-.2,0-.1.2-.2.2-.3v-.2c0-.2.1-.3.1-.5v-.6l.7-31.1,28.5-21.3c.6-.5.9-1.3.7-2.1s-.9-1.3-1.7-1.3l-111.8-5.3h-.3c0,0-.3,0-.4.1h-.2c0,0-.3.2-.4.3h0c0,.1-.3.3-.3.5s0,.4,0,.6h0c0,.1.4.3.4.3ZM171,414.7l-68.5-22.5,92.7,4.4-24.2,18.1ZM161.2,425.5c0-.1-.1-.2-.2-.3h-.1c0-.1-.1-.2-.1-.2l-.2-.2-49.9-25.9,59,19.4-.5,23.2-7.8-15.9h-.2ZM149.7,437.6l2-1.8,7.1-6.4,7.7,16-8.4-3.9-8.5-3.9h0ZM93.4,394.2l62.8,32.5-3.9,3.5-25.8,23.2s-33.1-59.2-33.1-59.2Z"/>
  <path class="st2" d="M1077.9,169.4c0-.1,0-.3,0-.4v-.2c.1-.2,41.9-37.6,42.1-37.8l-52.3,33.6,6.3,22.3,3.5-17.3.3-.2Z"/>
  <path class="st4" d="M1081.1,172.6l-3.4,17.5,7.1-5.9,7.2-5.9-2.4-1.3-8.5-4.4h0Z"/>
  <path class="st3" d="M1037.7,150l28,11.4,60.6-38.9-88.6,27.5ZM1087.7,171.8l30.8,16,17.2-65.7-52.6,47.3,4.6,2.4Z"/>
  <path class="st5" d="M1140.9,116c0-.2,0-.4-.2-.5,0-.2-.3-.3-.5-.4h0c0,0-.3,0-.5-.2h-.9l-106.9,33.2c-.8.2-1.3.9-1.3,1.7s.4,1.5,1.2,1.8l32.9,13.4,8.5,29.9v.6c0,.2,0,.3.3.5,0,.1.2.2.3.3,0,0,.2.1.4.2h.7c.5,0,1-.3,1.3-.7l19.5-15.9,23.2,12c.3.2.7.2,1.1.2s.4,0,.6-.2c.5-.2.9-.7,1.1-1.3l19.3-74v-.8.2ZM1037.7,150l88.6-27.5-60.7,39-28-11.4h0ZM1074.4,186.7l-6.3-22.3,52.3-33.6-41.9,37.6-.2.2v.2c0,.1,0,.2,0,.4l-3.5,17.3-.3.2ZM1084.8,184.2l-7.1,5.8,3.5-17.4,8.5,4.4,2.4,1.3-7.2,5.9h-.1ZM1118.5,187.8l-30.8-16-4.7-2.4,52.6-47.2-17.1,65.6h0Z"/>
  <path class="st2" d="M1176.2,342c0-.2.4-.3.5-.5,0,0,.2,0,.2-.1l52-21.3-60.5,14.1-1.5,23.2c.2-.3,9.1-15.1,9.3-15.4Z"/>
  <path class="st4" d="M1178,346.4l-9.1,15.3,8.7-3.1,8.8-3.2-1.9-2-6.5-7h0Z"/>
  <path class="st3" d="M1144.7,310.5l22.5,20.2,70.2-16.3-92.7-3.9h0ZM1184.5,347.8l23.7,25.4,38.1-56-65.4,26.8,3.6,3.8h0Z"/>
  <path class="st5" d="M1253.3,313.2v-.6c0-.2-.2-.4-.3-.5,0-.1-.2-.2-.4-.3h-.2c0,0-.3-.1-.4-.1h-.3l-111.9-4.6c-.8,0-1.5.4-1.8,1.2s0,1.6.5,2.1l26.5,23.7-2.1,31c0,.1,0,.3,0,.4v.9c0,.1,0,.2.2.4,0,.1.2.2.3.3h0c.2,0,.3.2.5.2.5.1,1,0,1.4-.3l23.7-8.5,17.8,19.1c.3.3.6.5.9.5h.6c.6,0,1.1-.3,1.4-.8l43.1-63.2s0-.1,0-.2v-.6h.4ZM1144.7,310.5l92.7,3.8-70.2,16.3-22.5-20.1h0ZM1166.9,357.4l1.5-23.2,60.5-14.1-52,21.3s-.2,0-.2.1h0c0,.1,0,.2,0,.2l-.3.3-9.1,15.1-.2.3ZM1177.6,358.6l-8.7,3.1,9.1-15.3,6.5,7,1.9,2-8.8,3.1h0ZM1208.2,373.2l-23.6-25.4-3.6-3.8,65.4-26.8-38.2,56.1h0Z"/>
  <path class="st2" d="M504.5,345.1c0-.1,0-.3.1-.4,0-.2-.1-.5.2-.6l39.3-40.2-50,36.9,7.8,21.9,2.4-17.5h.2Z"/>
  <path class="st4" d="M507.9,348.1l-2.3,17.7,6.7-6.3,6.9-6.4-2.5-1.1-8.8-3.9h0Z"/>
  <path class="st3" d="M463.1,328.4l28.7,9.6,57.9-42.9-86.6,33.3ZM514.4,346.9l31.8,13.9,12.8-66.6-49.4,50.6,4.8,2.1Z"/>
  <path class="st5" d="M563.8,287.7c0-.2-.2-.3-.3-.5s-.3-.3-.5-.4h0c-.2,0-.3-.1-.5-.1h-.9l-104.5,40.2c-.7.3-1.2,1-1.2,1.8s.5,1.5,1.3,1.7l33.7,11.2,10.4,29.3v.6c0,.2.2.3.3.5h.1c.1,0,.2.2.3.2s.3,0,.4.1h.7c.5,0,.9-.4,1.2-.8l18.4-17.2,23.9,10.5c.3.1.7.2,1.1.1s.4,0,.6-.2c.5-.3.9-.8,1-1.3l14.4-75.1v-.8l.2.2ZM463.1,328.4l86.6-33.3-58,42.9-28.6-9.6h0ZM502.1,362.7l-7.8-21.9,50-36.9-39.3,40.2-.2.2v.4c0,.1,0,.2-.1.4l-2.4,17.5h-.2ZM512.3,359.5l-6.7,6.3,2.3-17.6,8.8,3.8,2.5,1.1-6.8,6.4h0ZM546.2,360.8l-31.8-13.9-4.8-2.1,49.4-50.6-12.8,66.6h0Z"/>
  <polygon class="st3" points="1325.1 109.1 1350.5 125.4 1417.2 98.2 1325.1 109.1"/>
  <polygon class="st3" points="1370.2 139.6 1397.6 161 1426.4 99.6 1366.1 136.4 1370.2 139.6 1370.2 139.6"/>
  <g>
    <path class="st2" d="M106.5,146c2.3,3.4-1.8,6.9-3.7,2.5-.6-2.1,2.1-4.8,3.6-2.5h.1Z"/>
    <path class="st2" d="M118.6,151.6c1.5,1.2,1,5.3-1.4,4.8-3.8-.6-1.9-7.3,1.3-4.8h.1Z"/>
    <path class="st2" d="M131.3,155.7c1.8,1,1.7,4.9-.8,4.7-3.8,0-2.8-6.9.6-4.7h.2Z"/>
    <path class="st2" d="M144.4,158.3c1.7.9,2.3,4.9-.2,4.9-3.9.1-3.6-6.8.2-4.8h0Z"/>
    <path class="st2" d="M157.8,159.9c1.6.7,2.2,3,1.1,4.4-4.6,2.2-5.3-6.5-1.1-4.6v.2Z"/>
    <path class="st2" d="M171.2,160.6c3.4,1.8,1.5,7-2.1,4.1-1.5-1.6-.5-5.3,2-4h.1Z"/>
    <path class="st2" d="M184.8,160.7c3.5,1.5,2,6.9-1.9,4.1-1.7-1.5-.6-5.3,1.9-4.1Z"/>
    <path class="st2" d="M198.4,160.5c1.4.4,2,1.8,1.9,3.2.1,2.1-2.7,1.9-3.8.9-1.7-1.4-.7-5.4,1.9-4.1Z"/>
    <path class="st2" d="M212,160.2c1.4.4,2,1.8,1.9,3.2.1,2.1-2.7,1.9-3.8.9-1.7-1.4-.7-5.4,1.9-4.1Z"/>
    <path class="st2" d="M225.6,159.9c1.4.4,2,1.8,1.9,3.2.1,2.1-2.7,1.9-3.8.9-1.7-1.4-.7-5.4,1.9-4.1Z"/>
    <path class="st2" d="M239.2,159.6c1.4.4,2,1.8,1.9,3.2.1,2.1-2.7,1.9-3.8.9-1.7-1.4-.7-5.4,1.9-4.1Z"/>
    <path class="st2" d="M252.8,159.2c1.4.4,2,1.8,1.9,3.2.1,2.1-2.7,1.9-3.8.9-1.7-1.4-.7-5.4,1.9-4.1Z"/>
    <path class="st2" d="M266.5,158.9c1.4.4,2,1.8,1.9,3.2.1,2.1-2.7,1.9-3.8.9-1.7-1.4-.7-5.4,1.9-4.1Z"/>
    <path class="st2" d="M280,158.4c3.7,1.4,2.6,6.7-1.6,4.1-1.6-1.4-1.1-5.1,1.6-4.4v.3Z"/>
    <path class="st2" d="M292.9,156.3c3.9.6,3.9,5.9-.7,4.4-1.8-.9-2-4.8.6-4.5h0Z"/>
    <path class="st2" d="M304.3,150.6h1.7c1,.4,2.6,2.1,1.9,3.3-3.3,3.5-7.4-2.3-3.6-3.4h0Z"/>
    <path class="st2" d="M314.8,142.1c1.8-.6,3.7.6,3.9,2.5,0,1.2-1.7,1.8-2.7,1.8-2.1,0-3.9-3.7-1.2-4.4h0Z"/>
    <path class="st2" d="M326.1,134c1.9-.6,5,2.2,3.1,3.8-2.7,2.7-7.1-2.7-3.1-3.8Z"/>
    <path class="st2" d="M337,126.4c1.7-.5,3.8.6,3.9,2.5,0,1.3-1.8,1.9-2.9,2-2.2-.2-3.6-3.8-1-4.5Z"/>
    <path class="st2" d="M345.3,116.9c1.3-1,3.8-1.1,4.7.6.3,1.2-1,2.5-2,3-2,.5-4.6-2-2.6-3.6h-.1Z"/>
    <path class="st2" d="M348.1,105.1c1.6-3.8,6.7-2.4,4.1,1.7-1.4,1.5-5.1.6-4.1-1.8h0Z"/>
    <path class="st2" d="M342.6,95.4c-1.9-3.7,2.4-6.7,4-2,.3,1.9-2.8,4.3-4,2.2v-.2Z"/>
    <path class="st2" d="M330.9,90.9c-.4-.3-.9-.8-1.1-1.3-1.1-3.3,1.4-4.9,3.8-2.4,1.2,1.6-.6,5.3-2.7,3.7Z"/>
    <path class="st2" d="M318.1,90.3c-3.7-1.2-2.9-6.5,1.4-4.3,1.6,1.3,1.1,5-1.4,4.3Z"/>
    <path class="st2" d="M306.4,94.6h-1.7c-.9-.4-2.2-1.6-2.2-2.7.2-1.2,2.2-1.7,3.2-1.7,2,.3,3.2,4.2.6,4.5h0Z"/>
    <path class="st2" d="M297.9,103.7c-.3.2-.7.3-1,.5-3.6,1-5.1-2.8-1.4-4.1,2.1-.5,4.6,2.5,2.4,3.9v-.3Z"/>
    <path class="st2" d="M293.2,115.7c-1,1.7-5,2-5-.5,0-3.9,6.7-3.1,4.8.5h.2Z"/>
    <path class="st2" d="M291.8,128.7c-1.7,3.4-6.9,1.7-4-2,1.6-1.5,5.2-.5,4,2Z"/>
    <path class="st2" d="M292.4,142.1c-.4,1.9-3.4,3.1-4.7,1.5-.2-1.7.2-3.7,2.2-3.9,1.8,0,3,.4,2.6,2.4h-.1Z"/>
    <path class="st2" d="M293.6,155.6c-.4,1.9-3.4,3.1-4.7,1.5-.2-1.6.2-3.8,2.2-3.9,1.8,0,3,.3,2.6,2.4h-.1Z"/>
    <path class="st2" d="M295,169.1c-.4,1.9-3.3,3.1-4.6,1.5-1.4-4.1,5.3-5.9,4.7-1.6h-.1Z"/>
    <path class="st2" d="M296.4,182.7c-.3,1.9-3.3,3.1-4.6,1.5-1.4-4,5.2-6.1,4.7-1.6h-.1Z"/>
    <path class="st2" d="M297.9,196.2c-.2,2-4.2,3.4-4.7,1-1-3.6,5.5-5.3,4.8-1.1h-.1Z"/>
    <path class="st2" d="M299.4,209.8c-.3,1.9-3.3,3.1-4.6,1.5-1.4-4.1,5.3-5.9,4.7-1.6h-.1Z"/>
    <path class="st2" d="M300.8,223.3c-.4,1.9-3.4,3.1-4.7,1.5-1.4-4.1,5.4-6,4.7-1.5Z"/>
    <path class="st2" d="M302.2,236.9c-.4,1.9-3.4,3.1-4.7,1.5-.2-1.6.3-3.7,2.2-3.8,1.7,0,3,.3,2.6,2.4h-.1Z"/>
    <path class="st2" d="M303.4,250.5c-.4,1.9-3.4,3.1-4.7,1.5-.2-1.7.2-3.6,2.2-3.8,1.8,0,3,.4,2.6,2.4h-.1Z"/>
    <path class="st2" d="M304.4,264.1c-1.4,3.6-6.8,2.7-4.2-1.5,1.4-1.6,5-1.2,4.3,1.5h-.1Z"/>
    <path class="st2" d="M305.3,277.8c-1.4,3.6-6.8,2.3-4.2-1.7,1.4-1.6,5.1-1.1,4.4,1.6h-.2Z"/>
    <path class="st2" d="M305.8,291.4c-.5,1.8-2.9,2.4-4.4,1.5-.8-.7-.4-2.6.2-3.4,1.4-1.7,5.6-.7,4.2,1.9Z"/>
    <path class="st2" d="M306.1,305.1c-.4,2-4.6,2.9-4.8.5-.9-3.7,5.9-4.5,4.9-.6h0Z"/>
    <path class="st2" d="M306,318.8c-.5,2-4.6,2.6-4.8.3-.7-3.7,6.3-4.3,4.8-.3Z"/>
    <path class="st2" d="M305.5,332.5c-.7,1.6-3,2.2-4.4,1.1-2.2-4.5,6.3-5.6,4.4-1.1Z"/>
    <path class="st2" d="M304.3,346.2c-.7,1.3-2,1.7-3.4,1.5-2-.2-1.5-2.8-.4-3.8,1.6-1.4,5.5-.1,3.9,2.3h0Z"/>
    <path class="st2" d="M301.8,359.9c-.8,1.1-2.4,1.5-3.7,1-2-.5-1.2-2.9.1-3.8,1.9-1.2,5.4.7,3.5,2.9h.1Z"/>
    <path class="st2" d="M297,373.1c-1.2,1.5-5.7.8-4.7-1.5.9-3.6,7.3-1.5,4.6,1.6h.1Z"/>
    <path class="st2" d="M290.2,385.3c-1.5,1.3-5.4,0-4.3-2.2,1.4-3.5,7.6-.4,4.3,2.2h0Z"/>
    <path class="st2" d="M281.9,396.4c-1.5,1-3.8,0-4.3-1.8-.1-1.2,1.3-2,2.3-2.4,2.2-.3,4.6,2.9,2,4v.2Z"/>
    <path class="st2" d="M272.7,406.7c-1.6.9-3.8-.3-4.3-2-.1-1.2,1.4-2.1,2.5-2.2,2.2-.1,4.2,3.1,1.7,4.3h.1Z"/>
    <path class="st2" d="M263.1,416.4c-1.6.7-3.9-.3-4.2-2.1-.2-1.2,1.5-2,2.5-2.2,2.2,0,4.2,3.3,1.5,4.2h.2Z"/>
    <path class="st2" d="M253.4,426c-1.5.7-3.9-.3-4.2-2.1-.2-1.2,1.5-2,2.5-2.2,2.2,0,4.2,3.3,1.5,4.2h.2Z"/>
    <path class="st2" d="M243.9,435.7c-1.5.9-4-.2-4.2-2-.1-1.2,1.4-2.1,2.5-2.2,2.1-.2,4.2,3.3,1.7,4.2Z"/>
    <path class="st2" d="M234.1,445.3c-1.4.6-2.7,0-3.5-1.2-1.4-1.5.6-3,2.1-3.2,2.2,0,4.1,3.4,1.4,4.3h0Z"/>
    <path class="st2" d="M223.1,454c-1.9.5-4.5-1.5-3.6-3.5,3-3.2,7.6,2.2,3.5,3.5h.1Z"/>
    <path class="st2" d="M210.4,460.4c-2,0-3.6-2.7-2.5-4.3.1,0,.3-.1.4-.2,3.2-1.8,6.4,4.6,2.1,4.5h0Z"/>
    <path class="st2" d="M196.3,462.8c-3.4-1.3-1.9-6.8,1.8-4.2,1.6,1.6,1.2,5.2-1.7,4.4v-.2Z"/>
    <path class="st2" d="M182.1,460.3c-1.1-1-1.2-2.6-.5-3.9.8-1.8,3-.8,3.7.6,1,2-1,5.3-3.2,3.3h0Z"/>
  </g>
  <g>
    <path class="st2" d="M496.5,380.6c-1.2,1.7-5.2,1.2-4.7-1.2.5-3.7,7.4-1.9,4.8,1.3h-.1Z"/>
    <path class="st2" d="M490.9,393.1c-1.5,1.2-3.6.7-4.5-.9-.1-4.5,8-2.4,4.5,1h0Z"/>
    <path class="st2" d="M482.5,404.3c-1.6.8-3.8-.5-4.1-2.2-.2-1.1,1.4-1.8,2.4-2,2.2-.1,4.3,3.3,1.6,4.3h.1Z"/>
    <path class="st2" d="M471.5,412.8c-1.9.5-4.1-1.8-3.3-3.6,2.7-3.1,7.7,2.5,3.3,3.6Z"/>
    <path class="st2" d="M459.7,419.5c-1.9.5-4.6-2.7-2.8-4.1,2.8-2.3,6.7,3.3,2.7,4.1h.1Z"/>
    <path class="st2" d="M447.5,425.4c-.4,0-.8,0-1.1-.2-2.9-1.3-2.8-5.1,1.1-4.3,1.9.6,2.8,4.6,0,4.5h0Z"/>
    <path class="st2" d="M434.9,430.5c-1.9,0-3.7-2.5-2.5-4.1,3.1-2.5,6.8,4.1,2.4,4.3v-.2Z"/>
    <path class="st2" d="M421.5,434.1c-2-.2-2.9-3.4-1.4-4.7,3.6-1.2,5.9,5.5,1.4,4.7Z"/>
    <path class="st2" d="M407.2,431c-1.4-1.4-.2-4.6,1.7-4.5,3.8.8,1.5,8.1-1.6,4.5h0Z"/>
    <path class="st2" d="M397.6,420.2c-.2-1.5.9-2.7,2.3-3,1.8-.7,2.5,1.5,2.2,2.9-.7,2.2-4.5,3.2-4.5,0Z"/>
    <path class="st2" d="M395.5,405.7c.9-1.7,3.4-1.9,4.6-.5,2,3.9-6.7,5-4.6.5h0Z"/>
    <path class="st2" d="M402.7,392.9c1.8-.8,3.7.5,3.9,2.4,0,.3,0,.7-.3.9-2.2,2.7-7.2-1.6-3.6-3.4h0Z"/>
    <path class="st2" d="M415.3,386.2c2.1,0,3.3,2.8,2.3,4.4-3.2,2.3-6.6-4.2-2.2-4.3h-.1Z"/>
    <path class="st2" d="M429.3,384.3c1.4.5,1.9,1.9,1.7,3.3,0,1.9-2.5,1.6-3.6.7-1.6-1.5-.8-5.4,1.9-4.1h0Z"/>
    <path class="st2" d="M443.1,386.8c1.1,1,1.3,2.3.7,3.7-.6,1.8-2.8,1.2-3.6-.1-1.1-1.9,1-5.3,3.1-3.3l-.2-.3Z"/>
    <path class="st2" d="M455.6,393.2c1.3,1.6-.4,5.2-2.5,4.2-3.2-1.5-.1-7.6,2.3-4.3h.2Z"/>
    <path class="st2" d="M465.7,402.9c.4,1.4-.1,2.7-1.4,3.5-1.7,1.2-3-.6-3-2.2,0-2.2,3.6-4,4.5-1.3h0Z"/>
    <path class="st2" d="M472.9,414.8c0,.4,0,.8-.2,1.1-1.3,2.9-5.1,2.6-4.3-1.2.7-2.2,4.8-3,4.5.1Z"/>
    <path class="st2" d="M477.2,428c-.1,1.4-1.4,2.5-2.8,2.5-1.9.3-2.2-2-1.5-3.4,1-1.9,5.1-2,4.4.9h-.1Z"/>
    <path class="st2" d="M478.5,441.8c-.3.9-1,1.7-2,1.7-2.7.5-3.3-1.7-1.9-3.6,1.4-1.7,5.4-.7,4.1,1.9h-.2Z"/>
    <path class="st2" d="M475.2,455.7c-.3.3-.7.4-1,.6-1.3.6-2.9-.3-3.6-1.5,0-.3-.3-.7.1-1,1-3.4,7.6-1.1,4.5,1.8h0Z"/>
    <path class="st2" d="M466.3,466.7c-1.5.6-2.6,0-3.5-1.2-1.2-1.5.6-2.9,2.2-3,2.1,0,4.1,3.4,1.4,4.3h-.1Z"/>
    <path class="st2" d="M455.3,474.9c-1.9.4-4.4-1.6-3.5-3.5,2.6-3.2,7.6,2.2,3.4,3.5h0Z"/>
    <path class="st2" d="M444.4,482.4c-1.9.5-4.4-1.5-3.6-3.3,2.8-3.3,7.6,1.8,3.6,3.2h0Z"/>
    <path class="st2" d="M434.1,490.6c-1.6.7-3.8-.4-4.1-2.2,0-1.2,1.6-2.1,2.7-2,2,0,3.9,3.7,1.2,4.3h.2Z"/>
    <path class="st2" d="M425.2,500c-1.6.9-4.5-.3-4.4-2.2,1.7-4,7.9-.2,4.6,2.3h-.2Z"/>
  </g>
  <g>
    <path class="st2" d="M1063.8,203.2c-1.7.7-4.5-.4-4.2-2.5,2.1-4,7.8,0,4.2,2.5Z"/>
    <path class="st2" d="M1057.4,214.2c-1.2,1.5-5.2,1-4.7-1.4.6-3.9,7.5-1.7,4.7,1.4Z"/>
    <path class="st2" d="M1052.8,227c-.9,1.1-2.4,1.3-3.7.7-2-.7-1-3.1.4-3.9,1.9-1.1,5.4,1.1,3.3,3.1h0Z"/>
    <path class="st2" d="M1048,240c-1.2,1.3-3.7,1.2-4.7-.3-.7-1.8,1.7-3.9,3.5-3,1.5.5,2.5,2.2,1.1,3.4h0Z"/>
    <path class="st2" d="M1041.9,252.5c-1.5,1.5-5.4.1-4.4-2.1,1.4-3.6,7.7-1,4.4,2.1Z"/>
    <path class="st2" d="M1033.5,263.9c-1.4.7-2.7.2-3.7-.9-1.4-1.4.3-3.1,1.9-3.3,2.2-.2,4.6,3,1.8,4.1h0Z"/>
    <path class="st2" d="M1022.7,273.1c-1.9.5-4.5-1.3-3.6-3.4,2.6-3.2,7.8,1.8,3.6,3.4Z"/>
    <path class="st2" d="M1011.1,280.6c-.4,0-1.3,0-1.7,0-1.1-.6-2.6-2.9-1.1-3.8,2.9-2.5,7,3,2.8,3.9Z"/>
    <path class="st2" d="M999,287.2c-3.8.2-4.9-5.2-.3-4.6,2.1.7,3.1,4.3.2,4.5h0Z"/>
    <path class="st2" d="M986.4,293.1c-.4,0-.8,0-1.1-.2-3.1-1.4-2.6-5,1.3-4.3,2.1.7,2.6,4.6-.2,4.5Z"/>
    <path class="st2" d="M973.6,298.1c-.4,0-.8-.1-1.1-.3-2.9-1.4-2.1-5.4,1.5-4.1,2,.9,2.4,4.8-.4,4.5h0Z"/>
    <path class="st2" d="M960.4,302.3c-1.5,0-2.5-1.3-2.6-2.7,0-.8-.2-1.6.8-1.9,3.4-1.8,5.8,4.6,1.7,4.5h0Z"/>
    <path class="st2" d="M947,305.6c-1.7-.1-3.2-2.4-2.4-4,.5-1.1,2.4-1,3.4-.5,1.8,1,1.8,5.1-1,4.4h0Z"/>
    <path class="st2" d="M933.4,308c-2-.2-3.5-4-1.1-4.6,3.6-1.3,5.1,5.7,1,4.8v-.2Z"/>
    <path class="st2" d="M919.6,309.6c-1.9-.4-3.1-3.4-1.5-4.7,1.6-.2,3.7.3,3.8,2.2.1,1.9-.5,2.9-2.5,2.6h.2Z"/>
    <path class="st2" d="M905.9,310.5c-3.5-1.4-2.4-6.8,1.7-4.2,1.6,1.4,1.1,5.1-1.6,4.4v-.2Z"/>
    <path class="st2" d="M892.2,310.9c-1.4-.4-2-1.8-1.9-3.2-.1-2.1,2.7-1.9,3.8-.9,1.7,1.4.7,5.4-1.9,4.1Z"/>
    <path class="st2" d="M878.5,311c-3.5-1.5-2-6.8,1.9-4.1,1.7,1.4.6,5.4-1.9,4.1Z"/>
    <path class="st2" d="M864.8,311c-2-.4-2.9-4.6-.5-4.8,3.8-.8,4.5,6.1.5,4.7h0Z"/>
    <path class="st2" d="M851.1,310.8c-2-.5-2.6-4.6-.3-4.8,3.8-.7,4.3,6.3.3,4.8Z"/>
    <path class="st2" d="M837.4,310.5c-1.8-.7-2.2-2.9-1.3-4.4.8-.9,2.7-.3,3.4.4,1.6,1.6.5,5.3-2.1,4Z"/>
    <path class="st2" d="M823.7,310.1c-3.5-1.9-1.3-6.9,2.2-4,1.6,1.7.4,5.2-2.2,4Z"/>
    <path class="st2" d="M810,309.5c-1.9-.6-2.5-4.7-.1-4.7,4-.7,4.1,6.6.1,4.7Z"/>
    <path class="st2" d="M796.3,308.9c-1.8-.7-2.4-3.9-.6-4.7,4.4-1,5,6.4.6,4.7Z"/>
    <path class="st2" d="M782.7,308.3c-1.9-.6-2.6-4.7-.1-4.7,4-.7,4.1,6.6.1,4.7Z"/>
    <path class="st2" d="M769,307.6c-1.6-.7-2.2-3-1.1-4.4,4.8-2.3,5.6,6.8,1.1,4.4Z"/>
    <path class="st2" d="M755.3,306.8c-.7-.4-1.7-1.2-1.6-2.1,0-1,0-2.9,1.5-2.6,4-.7,4,6.9,0,4.7Z"/>
    <path class="st2" d="M741.8,306.2c-3.4-1.7-1.7-6.9,2-4,1.5,1.5.5,5.3-2,4h0Z"/>
    <path class="st2" d="M728.5,306.9c-3.6-1.1-2.8-6.4,1.3-4.2,1.8,1.3,1.3,5.1-1.4,4.3h0Z"/>
    <path class="st2" d="M715.9,310.1c-2.8.3-4.9-4.5-1.2-4.7,2.8-.7,4.5,4.6,1.1,4.6h0Z"/>
    <path class="st2" d="M705.5,317.2c-1.7.7-4.5-.5-4.3-2.6,1.8-3.9,7.9.2,4.2,2.5h0Z"/>
    <path class="st2" d="M699.1,327.9c-2.7,2.9-7.2-.3-3.3-3.1,1.8-.9,5,1.3,3.3,3.2h0Z"/>
    <path class="st2" d="M698.7,340c-.8,4.1-6.1,3.8-4.5-.9,1.1-1.7,4.9-1.7,4.6.8h-.1Z"/>
    <path class="st2" d="M706,349c.2.3.3.6.5.9,0,.2,0,.4.2.5.4,3.7-3,4.2-4.3,1-.5-1.9,2.4-4.6,3.7-2.4h-.1Z"/>
    <path class="st2" d="M717.9,351.5c1.2.5,1.9,1.8,2.1,3.1.3,2.2-2.7,1.9-3.9,1-1.6-1.5-.7-5.1,1.8-4.1Z"/>
    <path class="st2" d="M729.9,348c1.4-.2,2.7.4,3.4,1.7,1.2,1.9-1.4,3-2.9,2.7-2-.5-2.9-4.5-.2-4.5h-.3Z"/>
    <path class="st2" d="M739.3,339.6c1.5-1.2,5.5.6,4.1,2.5-1.6,3.6-7.5-.3-4.3-2.6h.2Z"/>
    <path class="st2" d="M745.7,328.2c.3-.3.6-.4.9-.6,3.3-1.1,5.4,1.8,2.2,4-2,.9-5.2-1.5-3.1-3.4Z"/>
    <path class="st2" d="M749.8,315.5c1-1.8,5-1.7,4.8.8,0,3.9-7,2.8-4.7-.7h0Z"/>
    <path class="st2" d="M751.4,302.9c.3-1.9,3.1-3.2,4.6-1.7.9,2.8-1.5,5.1-4.2,3.7-.9-.3-.5-1.3-.6-1.9h.2Z"/>
    <path class="st2" d="M747,291.1c-.6-1.9,2.2-5,3.8-3.1,2.8,2.8-2.9,7-3.8,3h0Z"/>
    <path class="st2" d="M738.8,280.9c-.7-1.6.3-3.9,2.1-4.2,1.3-.2,2,1.5,2.2,2.6,0,2.1-3.4,4.2-4.3,1.5h0Z"/>
    <path class="st2" d="M728.9,271.8c-.9-1.5,0-3.9,1.8-4.3,1.2-.1,2.2,1.4,2.4,2.4.1,2.3-2.9,4.5-4.2,1.9Z"/>
    <path class="st2" d="M718.3,263.4c-1.2-1.6.4-5.3,2.5-4.3,3.5,1.6-.2,7.5-2.6,4.3h0Z"/>
    <path class="st2" d="M707.3,255.3c-1.2-1.5.2-5.4,2.4-4.3,3.4,1.6,0,7.5-2.4,4.3h0Z"/>
    <path class="st2" d="M696.3,247.2c-1.2-1.6.4-5.4,2.5-4.3,3.4,1.6,0,7.5-2.4,4.3h0Z"/>
    <path class="st2" d="M685.4,238.8c-1-1.5,0-3.9,1.7-4.3,1.2,0,2.2,1.3,2.4,2.4.4,2.3-3,4.5-4.1,1.9Z"/>
    <path class="st2" d="M675,229.6c-.9-1.6.2-3.9,2-4.2,1.2-.2,2,1.4,2.2,2.4.1,2.2-3.3,4.3-4.3,1.6v.2Z"/>
    <path class="st2" d="M665.6,219.1c-.6-1.9,1.4-4.5,3.4-3.6,3.3,2.4-1.7,7.8-3.3,3.5h0Z"/>
    <path class="st2" d="M658.8,206.5c-.1-2.1,2.8-3.6,4.4-2.5,0,.1,0,.3.2.4,1.7,3.2-4.5,6.4-4.5,2.1h-.1Z"/>
    <path class="st2" d="M656.1,192.8c.1-1.9,3-3.5,4.4-1.9,1.8,4.4-5.6,5.9-4.4,1.9Z"/>
    <path class="st2" d="M653.2,179.5c.1-1.9,2.3-2.9,4-2.5,1,.5,1.1,2.5.6,3.4-.9,1.8-5.1,2-4.4-.8h-.2Z"/>
    <path class="st2" d="M649.5,166.6c0-1.8,2.6-3.7,4.2-2.5,2.5,3.3-4.1,6.8-4.4,2.4h.2Z"/>
    <path class="st2" d="M644.7,154c-.3-1.9,2.8-4.6,4.2-2.5,2.3,3.2-4,6.5-4.3,2.3v.2Z"/>
    <path class="st2" d="M638.6,142.1c0-.4,0-1.3,0-1.7.6-1.1,2.8-2.9,3.8-1.3,2.6,3-3,7-3.9,3h0Z"/>
    <path class="st2" d="M631,131.1c-.5-1.7.6-3.7,2.5-3.9,1.3,0,2,1.7,1.9,2.8,0,2-3.8,3.7-4.4,1.1h0Z"/>
  </g>
  <path class="st2" d="M1361.2,135.3c0-.3.4-.5.6-.7,0,0,48-29.3,48-29.3l-57.5,23.5,2.1,23.1c.2-.2,6.4-16.5,6.8-16.6Z"/>
  <path class="st4" d="M1363.6,139.3l-6.6,16.5,8.1-4.5,8.2-4.5-2.2-1.7-7.5-5.8Z"/>
  <path class="st5" d="M1432.7,94.5c0-.2,0-.4,0-.6s-.2-.3-.4-.5h0c0,0-.3-.2-.4-.3h-.9l-111.2,13.2c-.8,0-1.4.7-1.6,1.5s0,1.6.8,2l29.9,19.2,2.9,30.9v.6c0,.2,0,.4.2.5h0c0,.2.2.3.3.4,0,0,.2.2.3.2h0c.2,0,.3.1.5.1.5,0,1-.1,1.4-.5l22-12.1,20.6,16.1c.3.2.6.4,1,.4h.6c.6-.1,1-.5,1.3-1l32.5-69.2v-.8h.3ZM1325.1,109.1l92.2-10.9-66.8,27.2-25.4-16.3h0ZM1354.4,151.9l-2.1-23.1,57.5-23.5-48,29.3-.2.2h0c0,.1,0,.2,0,.2,0,.1,0,.2-.2.3l-6.6,16.4-.2.2ZM1365.1,151.3l-8.1,4.4,6.6-16.5,7.5,5.9,2.2,1.7-8.2,4.5h0ZM1397.6,161l-27.4-21.3-4.1-3.2,60.3-36.8-28.8,61.4h0Z"/>
  <g>
    <path class="st2" d="M1036.4,4.4c.8,1.6-.5,3.8-2.2,4.1-1.2.1-2-1.4-2.1-2.5-.1-2.2,3.3-4.1,4.2-1.5h.1Z"/>
    <path class="st2" d="M1045.5,14.8c.4,1.5-.2,2.6-1.3,3.5-1.6,1.3-3.1-.7-3-2.3,0-2.1,3.7-3.9,4.4-1.2h0Z"/>
    <path class="st2" d="M1053.7,25.9c.5,1.9-1.4,4.4-3.4,3.5-3.4-2.9,1.9-7.8,3.3-3.6h0Z"/>
    <path class="st2" d="M1061,37.8c.2,1.4-.7,2.8-2.1,3.2-1.8.9-2.7-1.6-2.3-3,.6-2.1,4.3-3,4.5-.2h-.1Z"/>
    <path class="st2" d="M1065.8,51.3c0,.4-.2.8-.4,1.1-.5,1.2-4,2.1-4.2.3-1.3-3.4,5.3-5.5,4.8-1.4h-.2Z"/>
    <path class="st2" d="M1065,65.9c-.9,1.3-2.4,1.4-3.7.8-1.8-.6-1.3-2.8.1-3.6,1.9-1.4,5.4.7,3.4,2.9h.2Z"/>
    <path class="st2" d="M1057.7,78.5c-1.7.9-3.8-.3-4.3-2,.5-4.4,8.4-1,4.3,1.9h0Z"/>
    <path class="st2" d="M1046.4,87.4c-1.6.3-2.7-.6-3.2-2.1-.8-1.8,1.2-2.6,2.8-2.3,2.3.5,3.3,4.3.3,4.5h0Z"/>
    <path class="st2" d="M1031.6,89.4c-1.4-.7-1.5-2.3-.9-3.6.6-1.8,2.6-1.3,3.6,0,1.6,1.9-.2,5.7-2.7,3.7Z"/>
    <path class="st2" d="M1018.8,81.6c-1-1.9,1.1-4.2,3.1-3.8,3.2,2.1-1.1,8-3.2,3.8h.1Z"/>
    <path class="st2" d="M1013.7,67.6c.6-1.8,3.1-2.3,4.5-1.2,2.2,3.6-5.8,5.9-4.5,1.1h0Z"/>
    <path class="st2" d="M1016.6,53.5c1.2-1.7,5.2-1.2,4.7,1.2-.5,3.7-7.2,2.1-4.7-1.2Z"/>
    <path class="st2" d="M1022.9,40.8c1.5-1.2,4.6-.3,4.5,1.8-.9,3.9-7.9,1.1-4.4-1.8h0Z"/>
    <path class="st2" d="M1031.4,29.7c1.6-.9,3.8.3,4.3,2,.2,1.2-1.4,2.1-2.4,2.3-2.1.2-4.6-2.9-2-4.1v-.2Z"/>
    <path class="st2" d="M1041,19.7c1.6-.7,3.9.3,4.2,2.1.2,1.2-1.5,2-2.5,2.2-2.2,0-4.2-3.3-1.5-4.2h-.2Z"/>
    <path class="st2" d="M1050.8,10.2c1.6-.7,3.9.3,4.2,2.1.2,1.2-1.5,2-2.5,2.2-2.2,0-4.2-3.3-1.5-4.2h-.2Z"/>
    <path class="st2" d="M1060.5.6c1.6-.7,3.9.3,4.2,2.1.2,1.2-1.5,2-2.5,2.2-2.2,0-4.2-3.3-1.5-4.2h-.2Z"/>
  </g>
  <g>
    <path class="st2" d="M1328.8,161.7c-1.9-.6-2.6-4.7-.1-4.7,3.8-.6,4.1,6.4.2,5v-.3Z"/>
    <path class="st2" d="M1316.1,162.6c-.3,0-.7-.2-1-.4-3.1-1.8-1.8-5.5,1.8-4,1.8,1,1.7,5-.9,4.4h0Z"/>
    <path class="st2" d="M1305.8,168.6c-1.7.7-4.5-.4-4.2-2.5,1.9-3.9,7.7.2,4.2,2.4h0Z"/>
    <path class="st2" d="M1299.6,179.5c-1.2,1.6-5.2,1.1-4.7-1.3.6-4,7.1-2,4.6,1.2h0Z"/>
    <path class="st2" d="M1297,192.1c-.7,1.6-3,2.3-4.4,1.1-.8-.9-.1-2.6.6-3.4,1.5-1.5,5.6,0,3.8,2.3Z"/>
    <path class="st2" d="M1297.5,205c-.3,1.8-2.5,2.8-4.1,2.1-.9-.6-.5-2.6-.1-3.4,1.1-1.8,5.2-1.3,4.4,1.3h-.2Z"/>
    <path class="st2" d="M1300.4,217.8c0,1.8-2.6,3.7-4.2,2.5-2.5-3.4,4.2-6.6,4.3-2.2v-.3Z"/>
    <path class="st2" d="M1305.2,230.1c0,3.9-5.5,4.5-4.6,0,.6-1.9,4.5-2.8,4.5,0h0Z"/>
    <path class="st2" d="M1311.5,241.7c.2,1.4-.4,2.7-1.7,3.4-1.8,1.2-3-1.2-2.7-2.7.3-2,4.3-3.4,4.5-.6h-.1Z"/>
    <path class="st2" d="M1319.3,252.1c.7,1.6-.3,4-2.1,4.2-1.3.2-2-1.5-2.2-2.6-.1-2,3.5-4,4.2-1.5h0Z"/>
    <path class="st2" d="M1329.4,260c1.4,1.4.2,5.4-2,4.3-3.7-1.2-.6-7.5,2.1-4.4h-.1Z"/>
    <path class="st2" d="M1341.2,265.8c1.2,1.2,1.1,3.7-.3,4.6-1.1.6-2.5-.5-3.1-1.5-1-1.9,1.6-5.3,3.4-3.1Z"/>
    <path class="st2" d="M1353.7,270.2c1.7,1.1,1.3,5.1-1.1,4.9-3.7-.4-2.5-7,.9-4.8h.2Z"/>
    <path class="st2" d="M1366.6,273.8c1.8,1,1.7,5-.8,4.8-3.7,0-2.7-7.1.6-4.8h.2Z"/>
    <path class="st2" d="M1379.6,276.8c.4.3.9.8,1.1,1.3,1.1,2.9-1.4,5.1-3.7,2.5-1.3-1.7.4-5.3,2.6-3.7h0Z"/>
    <path class="st2" d="M1392.8,279c1.7.9,2.3,4.9-.2,4.9-3.7.3-3.7-6.6.2-4.9h0Z"/>
    <path class="st2" d="M1406.1,280.6c.7.4,1.7,1.2,1.6,2.1.5,2.8-2,3.4-3.8,1.6-1.4-1.6-.1-5.5,2.3-4v.3Z"/>
    <path class="st2" d="M1419.4,281.5c1.8.7,2.1,2.9,1.2,4.4-.8.9-2.7.3-3.4-.4-1.6-1.7-.3-5.2,2.2-4Z"/>
    <path class="st2" d="M1432.8,281.6c2,.4,3,4.6.5,4.8-3.7.9-4.5-5.9-.6-4.9h0Z"/>
    <path class="st2" d="M1446.1,280.9c1.8.4,3.2,3.3,1.6,4.6-1.7.2-3.7-.2-3.9-2.2,0-1.8.4-3,2.4-2.6v.2Z"/>
    <path class="st2" d="M1459,278.7c1.9.2,2.9,2.2,2.6,3.9-.5,1-2.5,1.1-3.4.6-1.9-1-2-4.9.8-4.5h0Z"/>
    <path class="st2" d="M1471.1,274.2c2-.5,4.7,2.5,2.8,4-3,2.5-6.7-3.4-2.7-4h0Z"/>
    <path class="st2" d="M1480.7,266.2c1.5-.9,4.6.2,4.4,2.2-1.2,4.2-7.8.5-4.4-2.1h0Z"/>
    <path class="st2" d="M1485.6,255c.9-1.6,4.9-2.1,4.9.4,0,3.9-6.7,3.1-4.8-.4h0Z"/>
    <path class="st2" d="M1486.4,242.1c1.7-3.4,6.9-2,4.1,1.9-1.4,1.6-5.1.7-4.2-1.8h.1Z"/>
    <path class="st2" d="M1484.6,229.3c.7-3.8,5.9-3.8,4.4.8-.9,1.9-5.2,1.9-4.4-.8Z"/>
    <path class="st2" d="M1478.9,218.3c-.6-1.7.9-4.6,2.9-4,4,2.8-1.4,7.6-2.8,4h-.1Z"/>
    <path class="st2" d="M1468.8,212c-3-2.6-.1-7.1,2.9-3.4,1.1,1.6-1.1,5.3-3,3.5h0Z"/>
    <path class="st2" d="M1457.3,212.8c-.3,0-.7,0-1-.2-.2,0-.4,0-.5-.2-3.3-1.8-1.7-4.9,1.7-4.1,1.8.5,2.4,4.8-.1,4.6h0Z"/>
    <path class="st2" d="M1450.3,221.8c-1.1,1.4-3.5,1.4-4.7.1-.6-1.2.5-2.7,1.5-3.2,1.8-.9,5.2,1.4,3.2,3.2h0Z"/>
    <path class="st2" d="M1447.8,234.4c-1.1,2.6-6,2.2-4.5-1.2.7-2.9,6.5-1.7,4.5,1.2Z"/>
    <path class="st2" d="M1448.4,247.3c0,.4-.3.7-.5,1-.5,1.2-2.5,1.6-3.6,1.1-1.1-.5-.6-2.6-.2-3.4,1.1-1.7,5.2-1.4,4.4,1.2h0Z"/>
    <path class="st2" d="M1451.8,259.9c-.4,3.6-5.7,4.3-4.5-.3.7-1.9,4.7-2.4,4.5.3h0Z"/>
    <path class="st2" d="M1457.4,271.6c.4,1.8-1.1,3.5-2.9,3.6-1.2-.1-1.7-2-1.5-3.1.5-2.1,4.2-3.2,4.5-.5h-.1Z"/>
    <path class="st2" d="M1465.1,282.3c.5,1.8-.6,3.7-2.5,4-1.2,0-1.9-1.7-2-2.7,0-2.1,3.7-3.8,4.3-1.2h.2Z"/>
    <path class="st2" d="M1474.4,291.5c.9,1.7-.3,4.6-2.4,4.3-3.9-1.7-.3-7.9,2.4-4.3Z"/>
    <path class="st2" d="M1485,299.1c.2.3.3.7.5,1,.3,1.3-.3,2.9-1.5,3.6-1.1.1-2.4-1-2.7-2.1-.6-2,2.3-4.8,3.7-2.5h0Z"/>
    <path class="st2" d="M1496.7,305.3c1.2,1.3,1.1,3.7-.4,4.7-1.1.4-2.5-.9-3-1.8-.9-1.9,1.6-5.1,3.4-3h0Z"/>
  </g>
  <g>
    <path class="st2" d="M1464.4,490.9c.8-1.7,3.9-2.5,4.8-.5.8,4.2-6.5,4.4-4.8.3v.2Z"/>
    <path class="st2" d="M1465.5,477.6c.7-1.8,3.7-2.5,4.8-.8,1,4.2-6.1,5-4.8.8h0Z"/>
    <path class="st2" d="M1465.2,464.3c1.4-3.8,6.6-2.5,4,1.6-1.4,1.6-5.1,1.1-4.4-1.6h.4Z"/>
    <path class="st2" d="M1461.5,453.3c-.7-1.7.7-5.5,3-4.1,3.7,2.5-1.1,7.1-2.9,3.9v.2Z"/>
    <path class="st2" d="M1450.3,450c-1.7-.7-2.4-3.9-.6-4.7,4.5-.9,4.6,6.6.6,4.9v-.2Z"/>
    <path class="st2" d="M1437.7,450.7c-3.9-.8-3.9-6.1.8-4.5,1.7.9,1.7,5-.8,4.4h0Z"/>
    <path class="st2" d="M1430.2,458.3c-2.7,3.1-7.2-.2-3.3-3,1.7-.9,5.1,1.3,3.3,3.1h0Z"/>
    <path class="st2" d="M1429.8,470.8c-1.2,3.7-6.4,2.9-4.2-1.4,1.2-1.7,5.1-1.1,4.3,1.4h0Z"/>
    <path class="st2" d="M1433.2,483.2c.3,2-3,4.4-4.3,2.3-2.4-3.1,3.8-6.6,4.2-2.4h0Z"/>
    <path class="st2" d="M1439.6,494.6c.5,1.8-1.3,4.5-3.3,3.5-3.3-2.8,2.2-7.7,3.5-3.5h-.2Z"/>
  </g>
  <g>
    <path class="st2" d="M811.3,493.5c1.2-1.7,5.1-1.3,4.9,1.2-.4,3.7-7,2.4-4.8-1v-.2Z"/>
    <path class="st2" d="M816.2,480.6c1-1,2.6-1.1,3.8-.4,1.8.8.8,3.2-.7,3.7-2,.9-5.2-1.4-3.1-3.4h0Z"/>
    <path class="st2" d="M822.6,468.4c1.5-1.5,5.3,0,4.3,2.1-1.2,3.5-7.5.6-4.4-2.1h.1Z"/>
    <path class="st2" d="M830.4,457c1.5-1,3.8,0,4.4,1.6.2,1.2-1.2,2.2-2.2,2.4-2,.4-4.8-2.6-2.3-4h.1Z"/>
    <path class="st2" d="M839.4,446.6c1.5-.9,3.9.2,4.2,2,.2,1.2-1.4,2-2.4,2.2-2.2.1-4.2-3.1-1.7-4.3h-.1Z"/>
    <path class="st2" d="M849.5,437.3c1.7-.6,3.7.6,3.9,2.5,0,1.1-1.6,1.8-2.6,1.8-2.1,0-3.9-3.7-1.2-4.4h0Z"/>
    <path class="st2" d="M860.7,429.2c1.9-.4,4.4,1.6,3.5,3.5-2.7,3.2-7.6-2.2-3.4-3.5h0Z"/>
    <path class="st2" d="M872.6,422.3c2-.4,4.6,2.7,2.8,4.1-2.8,2.4-6.7-3.5-2.6-4.1h-.2Z"/>
    <path class="st2" d="M885.1,416.6c2-.3,4.1,3.2,2.1,4.2-3.1,2.1-6.4-4.2-2.2-4.3h.1Z"/>
    <path class="st2" d="M898,412.1c2,0,3.3,2.7,2.3,4.3,0,0-.3.1-.4.2-3.3,1.8-6.1-4.6-1.9-4.5Z"/>
    <path class="st2" d="M911.3,408.8c2,0,3.9,3.8,1.6,4.6-3.4,1.6-5.5-5.1-1.5-4.6h0Z"/>
    <path class="st2" d="M924.8,406.5c1.7.3,2.9,2.7,2,4.2-.7.9-2.4.5-3.3.1-1.7-1.2-1.4-5.2,1.3-4.4h0Z"/>
    <path class="st2" d="M938.5,405.2c1.9.5,2.9,3.5,1.4,4.8-1.6.2-3.6-.4-3.8-2.3,0-1.8.4-3,2.4-2.6h0Z"/>
    <path class="st2" d="M952.1,404.9c2,.5,2.6,4.6.3,4.8-3.7.7-4.3-6.2-.4-4.7h0Z"/>
    <path class="st2" d="M965.8,405.6c.7.4,1.7,1.2,1.6,2.1.5,2.8-1.9,3.3-3.8,1.7-1.5-1.5-.2-5.6,2.2-4v.2Z"/>
    <path class="st2" d="M979.4,407.2c1.9.8,2.2,4.8-.2,4.9-3.7.3-3.5-7,.2-4.9h0Z"/>
    <path class="st2" d="M992.9,410.3c1.7,1,1.2,5.1-1,4.8-3.7-.4-2.3-7.2,1.1-4.7h0Z"/>
    <path class="st2" d="M1005.6,416.7c1,1.5,0,3.8-1.6,4.3-4.6-.1-1.4-8.4,1.7-4.4h0Z"/>
    <path class="st2" d="M1015.1,427.5c.3,1.5-.4,2.7-1.8,3.3-1.8,1-2.7-1.2-2.6-2.7.3-2.1,4.3-3.5,4.6-.6h-.2Z"/>
    <path class="st2" d="M1020.4,440.6c0,.4-.2.8-.4,1.1-.6,1.4-3.6,2.3-4.3.6-1.8-3.4,4.8-5.7,4.5-1.6h.2Z"/>
    <path class="st2" d="M1022.3,454.6c-.4,1.9-4.7,2.6-4.7.3-.7-3.7,6.3-4.2,4.8-.3h0Z"/>
    <path class="st2" d="M1017.6,468.7c-1.4.8-2.8.3-3.7-1-.7-.9-.6-2,.5-2.6,2.2-1.7,6.4,1.8,3.2,3.5h0Z"/>
    <path class="st2" d="M1004.2,474.7c-2.1,0-3.8-3.7-1.6-4.7,3.3-1.6,5.7,5.1,1.6,4.6h0Z"/>
    <path class="st2" d="M990.2,476.7c-.8-.4-1.7-1.1-1.7-2.1-.5-2.7,1.8-3.4,3.6-1.8,1.6,1.5.8,5.4-1.9,4.1v-.2Z"/>
    <path class="st2" d="M976.4,474.4c-1.2-.9-1.5-2.4-.8-3.7.6-1.9,2.8-1.2,3.6.1,1.3,1.9-.8,5.4-2.9,3.5h0Z"/>
    <path class="st2" d="M963.7,467.1c-.3-.8-.4-2.1.3-2.7.6-.6,1.6-1.7,2.5-1.2,3.3,2-.9,7.9-2.9,3.8h0Z"/>
    <path class="st2" d="M957,454.2c-.1-2.2,3.6-3.6,4.5-1.5,1.7,3.5-5.4,5.9-4.5,1.5Z"/>
    <path class="st2" d="M956.4,439.9c.7-1.3,2.2-1.9,3.6-1.3,1.9.3,1.4,2.7.3,3.6-1.7,1.5-5.6,0-3.9-2.5v.2Z"/>
    <path class="st2" d="M961.6,426.5c1.2-.9,2.6-.8,3.7.1,1.6,1.2.1,3-1.3,3.6-2.1.6-5-2.1-2.5-3.7h.1Z"/>
    <path class="st2" d="M970.7,415.7c1.4-.6,2.7,0,3.5,1.2,1.4,1.5-.4,2.9-2,3-2.2,0-4.1-3.3-1.5-4.2h0Z"/>
    <path class="st2" d="M981.8,407.3c1.9-.5,4.1,1.6,3.3,3.5-2.7,3.1-7.6-2.3-3.4-3.6h.1Z"/>
    <path class="st2" d="M993.8,400.6c1.4-.2,2.7.7,3.1,2.1.9,1.8-1.6,2.8-3,2.4-2-.6-3.1-4.7,0-4.5Z"/>
    <path class="st2" d="M1006.3,395c3.7,0,4.4,5.6-.1,4.4-2-.8-2.7-4.7.2-4.6v.2Z"/>
    <path class="st2" d="M1019.2,390.4c1.9,0,3.7,2.7,2.5,4.3-3.2,2.5-6.9-4.1-2.5-4.4h0Z"/>
    <path class="st2" d="M1032.2,386.5c1.5.1,2.4,1.4,2.6,2.8,0,.8.2,1.6-.8,1.9-3.4,1.8-5.8-4.6-1.7-4.5v-.2Z"/>
    <path class="st2" d="M1045.5,383.3c2.1,0,3.9,3.8,1.5,4.7-3.4,1.6-5.7-5-1.6-4.6h0Z"/>
    <path class="st2" d="M1058.8,380.6c1.4.2,2.4,1.4,2.4,2.8.4,2-2.2,2.1-3.6,1.4-1.9-1.1-1.5-5.5,1.2-4.2Z"/>
    <path class="st2" d="M1072.2,378.3c.4,0,.7.3,1,.5,1.2.5,1.5,2.4,1.1,3.6-.6.9-2.4.6-3.3.2-1.7-1.1-1.4-5.3,1.2-4.4h0Z"/>
    <path class="st2" d="M1085.6,376.3c1.9.2,3.5,4,1.2,4.6-3.6,1.2-5.1-5.5-1.1-4.8v.2Z"/>
    <path class="st2" d="M1099,374.4c1.9.2,3.5,4,1.2,4.6-3.5,1.2-5.1-5.5-1.1-4.8v.2Z"/>
    <path class="st2" d="M1112.4,372.6c1.9.2,3.5,4,1.2,4.6-3.6,1.2-5.1-5.5-1.1-4.8v.2Z"/>
    <path class="st2" d="M1125.7,370.7c1.9.1,3.5,4.2,1.2,4.6-3.6,1.3-5.3-5.4-1.3-4.8v.2Z"/>
    <path class="st2" d="M1139,368.5c.4,0,.7.2,1,.4,2.9,1.9,1.5,5.7-2.1,3.9-1.8-1.2-1.6-5.2,1.1-4.3Z"/>
    <path class="st2" d="M1151.8,365.3c1.8,0,3.7,2.6,2.5,4.2-3.3,2.5-6.8-4.2-2.3-4.3h-.2Z"/>
  </g>
  <path class="st4" d="M82.2,112.6l2.7,17.5-6.9-6.1-7-6.2,2.5-1.2s8.7-4,8.7-4Z"/>
  <path class="st2" d="M161.1,425.5c0-.3-.4-.5-.6-.7,0,0-49.9-25.9-49.9-25.9l59,19.4-.5,23.2-7.8-15.9h-.2Z"/>
  <path class="st4" d="M158.9,429.4l7.7,16-8.4-3.9-8.5-3.9,2-1.8,7.2-6.4h0Z"/>
  <path class="st3" d="M195.2,396.6l-24.2,18.1-68.5-22.5,92.7,4.4ZM152.3,430.2l-25.8,23.2-33.1-59.2,62.8,32.5-3.9,3.5Z"/>
</svg>